<?xml version="1.0" encoding="utf-8"?>
<!-- Generator: Adobe Illustrator 26.5.0, SVG Export Plug-In . SVG Version: 6.00 Build 0)  -->
<svg version="1.1" id="Layer_1" xmlns="http://www.w3.org/2000/svg" xmlns:xlink="http://www.w3.org/1999/xlink" x="0px" y="0px"
	 viewBox="0 0 302.93 60.88" style="enable-background:new 0 0 302.93 60.88;" xml:space="preserve">
<style type="text/css">
	.st0{fill:#376FD0;}
</style>
<g>
	<g>
		<path d="M4.53,9.58h9.5c10.91,0,17.36,5.88,17.36,17.67c0,11.79-6.45,17.95-17.03,17.95H4.53V9.58z M13.61,40.08
			c7.17,0,11.28-4.07,11.28-12.83S20.78,14.7,13.61,14.7h-2.77v25.38H13.61z"/>
		<path d="M36.58,38.01c0-5.73,4.75-8.71,15.73-9.89c-0.09-2.88-1.24-5.27-4.86-5.27c-2.66,0-5.16,1.2-7.52,2.64l-2.31-4.18
			c2.94-1.85,6.73-3.51,10.98-3.51c6.69,0,9.98,4.12,9.98,11.57V45.2h-5.14l-0.48-2.96h-0.17c-2.4,2.05-5.14,3.62-8.3,3.62
			C39.81,45.85,36.58,42.67,36.58,38.01z M52.31,38.03v-6.01c-7.25,0.92-9.67,2.81-9.67,5.51c0,2.36,1.61,3.4,3.86,3.4
			C48.67,40.93,50.33,39.86,52.31,38.03z"/>
		<path d="M66.12,18.45h5.14l0.48,3.62h0.17c2.4-2.33,5.12-4.27,8.78-4.27c5.73,0,8.23,3.88,8.23,10.63V45.2h-6.27V29.23
			c0-4.4-1.26-6.06-4.16-6.06c-2.35,0-3.9,1.15-6.1,3.33V45.2h-6.27V18.45z"/>
		<path d="M95.89,10.21c0-2.11,1.66-3.55,3.88-3.55c2.22,0,3.88,1.44,3.88,3.55c0,2.07-1.66,3.55-3.88,3.55
			C97.55,13.76,95.89,12.28,95.89,10.21z M96.61,18.45h6.27V45.2h-6.27V18.45z"/>
		<path d="M109.12,31.84c0-8.69,6.03-14.05,12.33-14.05c7.23,0,11.04,5.23,11.04,12.7c0,1.2-0.13,2.4-0.27,3.05h-16.98
			c0.52,4.75,3.57,7.45,7.89,7.45c2.29,0,4.25-0.72,6.21-1.94l2.13,3.9c-2.55,1.72-5.77,2.9-9.17,2.9
			C114.91,45.85,109.12,40.67,109.12,31.84z M127.06,29.27c0-4.12-1.83-6.62-5.49-6.62c-3.12,0-5.86,2.33-6.4,6.62H127.06z"/>
		<path d="M138.49,38.31V6.73h6.27v31.91c0,1.55,0.7,2.09,1.35,2.09c0.28,0,0.5,0,0.98-0.11l0.78,4.68
			c-0.76,0.31-1.81,0.54-3.31,0.54C140.12,45.85,138.49,42.98,138.49,38.31z"/>
		<path class="st0" d="M152.44,40.63l3.68-4.33c2.55,2.43,5.97,4.06,9.28,4.06c4.01,0,6.21-1.82,6.21-4.6c0-2.93-2.3-3.87-5.53-5.24
			l-4.87-2.11c-3.51-1.46-7.2-4.24-7.2-9.44c0-5.67,5.01-10.04,11.96-10.04c4.16,0,8.19,1.72,10.98,4.54l-3.25,4.01
			c-2.27-1.93-4.68-3.06-7.73-3.06c-3.38,0-5.58,1.58-5.58,4.18c0,2.8,2.71,3.83,5.66,5.04l4.8,2.02c4.24,1.76,7.2,4.44,7.2,9.61
			c0,5.77-4.79,10.59-12.79,10.59C160.46,45.85,155.81,43.96,152.44,40.63z"/>
		<path class="st0" d="M184.01,18.45h5.14l0.48,3.65h0.17c2.26-2.36,4.86-4.3,8.21-4.3c3.92,0,6.15,1.79,7.38,4.79
			c2.56-2.72,5.21-4.79,8.6-4.79c5.64,0,8.26,3.88,8.26,10.63V45.2h-6.27V29.23c0-4.4-1.31-6.06-4.12-6.06
			c-1.7,0-3.53,1.09-5.6,3.33V45.2H200V29.23c0-4.4-1.31-6.06-4.12-6.06c-1.66,0-3.53,1.09-5.6,3.33V45.2h-6.27V18.45z"/>
		<path class="st0" d="M228.2,55.63l1.15-4.86c0.51,0.15,1.29,0.37,1.92,0.37c2.81,0,4.44-1.92,5.34-4.6l0.5-1.68l-10.52-26.42h6.36
			l4.62,13.11c0.81,2.37,1.57,5.01,2.35,7.56h0.22c0.67-2.48,1.35-5.12,2.05-7.56l3.99-13.11h6.06l-9.67,27.97
			c-2.22,6.02-5.03,9.76-10.87,9.76C230.22,56.18,229.18,55.96,228.2,55.63z"/>
		<path class="st0" d="M257.81,36.18V23.44H254v-4.71l4.14-0.28l0.74-7.3h5.21v7.3h6.82v4.99h-6.82v12.73
			c0,3.15,1.22,4.69,3.79,4.69c0.92,0,2-0.31,2.79-0.61l1.07,4.62c-1.46,0.48-3.32,0.98-5.47,0.98
			C260.09,45.85,257.81,41.95,257.81,36.18z"/>
		<path class="st0" d="M276.53,6.73h6.27v9.96l-0.26,5.16c2.24-2.11,4.9-4.05,8.56-4.05c5.73,0,8.23,3.88,8.23,10.63V45.2h-6.27
			V29.23c0-4.4-1.26-6.06-4.16-6.06c-2.35,0-3.9,1.15-6.1,3.33V45.2h-6.27V6.73z"/>
	</g>
</g>
</svg>
